<!DOCTYPE svg PUBLIC "-//W3C//DTD SVG 1.1//EN" "http://www.w3.org/Graphics/SVG/1.1/DTD/svg11.dtd">
<!-- Uploaded to: SVG Repo, www.svgrepo.com, Transformed by: SVG Repo Mixer Tools -->
<svg height="800px" width="800px" version="1.1" id="Layer_1" xmlns="http://www.w3.org/2000/svg" xmlns:xlink="http://www.w3.org/1999/xlink" viewBox="0 0 512 512" xml:space="preserve" fill="#000000">
<g id="SVGRepo_bgCarrier" stroke-width="0"/>
<g id="SVGRepo_tracerCarrier" stroke-linecap="round" stroke-linejoin="round"/>
<g id="SVGRepo_iconCarrier"> <circle style="fill:#00adb5;" cx="256" cy="256" r="256"/> <path style="fill:#03939b;" d="M166.041,375.282l133.082,133.082c86.643-14.7,158.465-72.923,192.183-151.4L378.649,244.307 L166.041,375.282z"/> <path style="fill:#707070;" d="M189.745,133.454l183.025,105.67c12.991,7.501,12.991,26.252,0,33.751l-183.025,105.67 c-12.991,7.501-29.229-1.876-29.229-16.875V150.331C160.516,135.33,176.755,125.954,189.745,133.454z"/> <path style="fill:#000000;" d="M160.516,256.862V361.67c0,15.001,16.239,24.376,29.229,16.875l183.025-105.67 c6.211-3.586,9.418-9.743,9.69-16.013H160.516z"/> </g>
</svg>